<svg version="1.1" id="Layer_1" xmlns="http://www.w3.org/2000/svg" xmlns:xlink="http://www.w3.org/1999/xlink" x="0px" y="0px"
	 width="100%" viewBox="0 0 3464 3464" enable-background="new 0 0 3464 3464" xml:space="preserve">
<path fill="#000000" opacity="1.000000" stroke="none" 
	d="
M1692.000000,3466.000000 
	C1128.000122,3466.000000 565.000366,3466.000000 2.000378,3466.000000 
	C2.000252,2311.333740 2.000252,1156.667725 2.000126,2.001152 
	C1156.665771,2.000768 2311.331543,2.000768 3465.998047,2.000384 
	C3465.998535,1156.665405 3465.998535,2311.330811 3465.999268,3465.998047 
	C2875.000000,3466.000000 2284.000000,3466.000000 1692.000000,3466.000000 
M2859.882080,1987.092651 
	C2859.366943,1984.157959 2858.851318,1981.223267 2858.335938,1978.288574 
	C2850.079346,1931.268677 2842.284668,1884.198364 2830.250488,1837.885986 
	C2813.473633,1773.320801 2798.137695,1708.382446 2781.717529,1643.722412 
	C2776.492432,1623.147339 2769.893066,1602.915283 2763.699707,1582.594116 
	C2760.086426,1570.737793 2752.221436,1563.382080 2739.654297,1561.635376 
	C2736.065674,1561.136597 2732.437012,1560.256958 2728.864746,1560.414673 
	C2707.658691,1561.350708 2686.463867,1562.547729 2665.264648,1563.642090 
	C2648.687988,1564.497803 2632.106934,1565.273315 2615.533691,1566.191040 
	C2595.668701,1567.291382 2575.812500,1569.342285 2555.947021,1569.414185 
	C2538.843262,1569.476074 2526.865967,1576.643433 2517.661621,1590.327026 
	C2505.570557,1608.302124 2498.821289,1628.452637 2494.220215,1649.254517 
	C2485.197021,1690.049927 2477.146973,1731.059692 2468.294922,1771.894043 
	C2453.959717,1838.019165 2439.341309,1904.083008 2424.763916,1970.155273 
	C2418.264893,1999.612427 2411.380859,2028.938843 2409.400146,2059.239502 
	C2408.498047,2073.040039 2405.911377,2086.896484 2402.545410,2100.341309 
	C2386.342529,2165.057861 2369.505859,2229.615234 2353.180908,2294.301514 
	C2350.594482,2304.550537 2348.701904,2315.106934 2347.850098,2325.631348 
	C2346.504883,2342.251465 2354.308350,2353.364502 2369.189697,2357.166016 
	C2374.922852,2358.630859 2380.966309,2359.536133 2386.873291,2359.562500 
	C2430.871582,2359.758057 2474.875244,2359.968262 2518.867676,2359.421875 
	C2527.929443,2359.309570 2537.165527,2356.736084 2545.937500,2354.046387 
	C2556.431641,2350.829346 2562.916748,2343.055664 2566.331299,2332.510254 
	C2573.462891,2310.483887 2572.620850,2287.884766 2570.730225,2265.396240 
	C2569.513428,2250.922607 2573.229248,2240.580322 2585.758545,2233.535645 
	C2590.925781,2230.630127 2596.485840,2228.167480 2602.155273,2226.458008 
	C2621.786133,2220.538818 2641.983643,2220.198486 2662.119873,2222.384277 
	C2679.489746,2224.270264 2691.381348,2233.926025 2697.167725,2250.732666 
	C2701.863037,2264.369873 2702.905518,2278.579102 2704.420410,2292.766846 
	C2705.753906,2305.254395 2707.344971,2317.767822 2709.894531,2330.047119 
	C2710.979004,2335.270508 2714.032227,2340.570801 2717.522949,2344.714111 
	C2726.361816,2355.206055 2738.098633,2359.792725 2751.904297,2359.723145 
	C2785.236328,2359.554932 2818.570312,2359.772217 2851.902344,2359.606689 
	C2862.176025,2359.555664 2872.474121,2359.100830 2882.710205,2358.231445 
	C2894.196045,2357.256104 2904.617676,2353.045898 2913.919678,2346.148926 
	C2925.967773,2337.215820 2931.156250,2324.830322 2929.416504,2310.434570 
	C2927.513916,2294.687988 2924.712891,2278.940430 2920.829346,2263.565186 
	C2912.379150,2230.106201 2901.530029,2197.196777 2894.314209,2163.494385 
	C2881.894287,2105.488037 2871.499268,2047.048218 2859.882080,1987.092651 
M1633.655762,1624.333496 
	C1622.573242,1626.153076 1611.193359,1626.936035 1600.470581,1630.010376 
	C1578.802002,1636.222778 1569.424072,1649.418945 1569.741577,1671.918823 
	C1570.036743,1692.839478 1571.136841,1713.747314 1571.628052,1734.666748 
	C1572.416504,1768.240601 1573.577759,1801.819824 1573.545166,1835.395752 
	C1573.468994,1913.638184 1572.910645,1991.881104 1572.264282,2070.121582 
	C1572.011719,2100.702881 1571.025513,2131.278320 1570.325928,2161.855469 
	C1569.695068,2189.435547 1568.854370,2217.011719 1568.385620,2244.594238 
	C1568.096924,2261.582031 1567.827026,2278.598633 1568.497070,2295.564697 
	C1569.005493,2308.437500 1570.547363,2321.320801 1572.473755,2334.071777 
	C1574.613892,2348.237549 1582.557617,2357.628418 1597.284790,2360.228760 
	C1600.861084,2360.860352 1604.414917,2362.064209 1607.996948,2362.138184 
	C1620.866089,2362.403809 1633.746826,2362.516357 1646.616089,2362.288574 
	C1676.529785,2361.758789 1706.437622,2360.909668 1736.351074,2360.363525 
	C1754.329346,2360.035156 1772.313354,2359.985840 1790.295288,2359.913330 
	C1795.609253,2359.891846 1800.964478,2359.858154 1806.232666,2360.443115 
	C1835.940918,2363.740479 1865.163330,2361.624268 1893.907715,2353.249756 
	C1921.580078,2345.187500 1945.511597,2331.035889 1966.007935,2310.656006 
	C1990.894653,2285.910400 2006.591064,2255.854492 2018.074707,2223.251221 
	C2037.808105,2167.227051 2043.513062,2108.857422 2045.405640,2050.092529 
	C2046.432373,2018.211548 2044.918823,1986.241211 2044.273071,1954.316895 
	C2043.998169,1940.723999 2043.504395,1927.099609 2042.244751,1913.570312 
	C2039.758667,1886.870972 2037.284912,1860.144165 2033.682617,1833.581177 
	C2028.493408,1795.316040 2019.309692,1757.952271 2003.356323,1722.623779 
	C1979.725708,1670.294556 1940.170410,1636.279175 1884.264648,1622.406860 
	C1854.184082,1614.942871 1823.565186,1612.529419 1792.502563,1615.533325 
	C1765.467285,1618.147827 1738.346436,1620.037720 1711.224487,1621.550903 
	C1686.023682,1622.956787 1660.771484,1623.441772 1633.655762,1624.333496 
M1101.675781,2308.774414 
	C1101.749634,2303.136719 1102.028320,2297.492920 1101.855713,2291.862793 
	C1101.469360,2279.258545 1100.461182,2266.662842 1100.403320,2254.060547 
	C1100.050049,2177.091553 1099.555420,2100.121094 1099.768677,2023.152832 
	C1099.959595,1954.238525 1100.890259,1885.325439 1101.724121,1816.414551 
	C1102.049927,1789.490479 1102.990356,1762.573853 1103.679443,1735.654419 
	C1103.798462,1731.003540 1104.317871,1726.350220 1104.209961,1721.708374 
	C1103.855469,1706.466187 1104.007568,1691.171997 1099.969727,1676.255859 
	C1097.009888,1665.322144 1089.571167,1659.386353 1078.766846,1657.996826 
	C1072.328857,1657.168701 1065.699097,1657.405029 1059.180542,1657.705444 
	C1032.996826,1658.911499 1006.820740,1660.291016 980.646118,1661.686768 
	C969.388733,1662.286987 958.096497,1662.671265 946.903015,1663.905884 
	C935.843750,1665.125610 926.336853,1669.841309 921.098633,1680.290527 
	C917.696777,1687.076660 914.237244,1694.061890 912.382080,1701.359131 
	C896.682678,1763.113525 881.349670,1824.961060 865.899719,1886.778809 
	C861.972290,1902.493408 858.020508,1918.201904 854.106750,1933.806152 
	C850.168518,1933.806152 846.980286,1933.806152 843.497375,1933.806152 
	C842.878662,1931.154907 842.357788,1928.933838 841.842163,1926.711304 
	C826.475037,1860.469604 811.231140,1794.198730 795.613098,1728.016113 
	C793.186768,1717.734375 789.553162,1707.652710 785.580872,1697.841553 
	C780.272278,1684.729736 770.152222,1677.325195 755.858765,1676.374756 
	C748.899170,1675.911865 741.880249,1675.617188 734.923706,1675.962036 
	C708.749695,1677.259277 682.575989,1678.641357 656.432556,1680.435059 
	C645.884460,1681.158691 635.331665,1682.571655 624.929688,1684.481323 
	C611.150513,1687.011108 604.115234,1694.548096 602.486145,1708.670288 
	C601.577271,1716.549072 601.864563,1724.606201 602.099182,1732.568726 
	C602.696045,1752.822998 604.054199,1773.066284 604.173767,1793.319580 
	C604.269775,1809.576294 602.569275,1825.836792 602.412598,1842.102783 
	C601.960144,1889.074951 601.733337,1936.050537 601.692200,1983.025024 
	C601.596497,2092.340332 601.616333,2201.655518 601.764465,2310.970459 
	C601.774231,2318.210205 602.632874,2325.583740 604.176453,2332.659424 
	C608.157593,2350.910156 618.581482,2360.810791 638.478149,2360.431152 
	C661.132812,2359.998779 683.804016,2360.500977 706.463928,2360.238770 
	C714.388062,2360.146973 722.356750,2359.380371 730.204346,2358.232910 
	C742.541809,2356.428711 747.130432,2352.143799 748.121216,2339.433594 
	C749.821472,2317.621582 751.420105,2295.736572 751.513550,2273.875732 
	C751.888306,2186.225342 751.660767,2098.572266 751.691711,2010.920044 
	C751.693176,2006.688232 752.033630,2002.456421 752.221130,1998.110107 
	C756.449585,1998.110107 759.690125,1998.110107 762.457703,1998.110107 
	C772.503906,2025.753784 781.947632,2053.016846 792.317444,2079.922607 
	C803.182190,2108.113037 814.029846,2136.401855 830.030884,2162.231445 
	C833.818604,2168.345459 838.832336,2173.778320 843.751526,2179.089355 
	C847.967773,2183.641357 853.303528,2183.443848 858.270203,2180.197754 
	C861.268555,2178.238037 864.125488,2175.866699 866.513733,2173.203125 
	C876.479919,2162.087402 882.106323,2148.472412 887.229431,2134.793701 
	C901.108276,2097.737305 910.942932,2059.488281 919.746887,2020.961182 
	C921.928406,2011.414551 924.199463,2001.888428 926.271423,1993.027954 
	C931.574768,1993.027954 935.405579,1993.027954 939.083740,1993.027954 
	C939.565613,1994.639771 940.054138,1995.572266 940.098938,1996.525757 
	C941.314270,2022.381104 943.358521,2048.233887 943.499451,2074.096924 
	C943.940918,2155.081055 943.611389,2236.069336 943.755798,2317.055664 
	C943.767517,2323.632324 944.802246,2330.258301 945.901062,2336.770508 
	C948.028992,2349.381348 955.985657,2356.601318 968.224548,2359.177734 
	C972.092712,2359.992432 976.134766,2360.250244 980.101074,2360.281738 
	C995.430969,2360.403564 1010.762329,2360.331055 1026.093140,2360.331055 
	C1041.423950,2360.330811 1056.766113,2360.702393 1072.082397,2360.229736 
	C1088.793701,2359.713867 1096.392456,2351.285645 1098.290649,2339.240234 
	C1099.779907,2329.788818 1100.568970,2320.227051 1101.675781,2308.774414 
M1172.331421,1882.999878 
	C1172.208130,1944.299561 1172.254395,2005.600220 1171.908936,2066.898682 
	C1171.623657,2117.490723 1171.333496,2168.090820 1170.110107,2218.665039 
	C1169.606567,2239.483643 1166.542114,2260.233887 1164.853760,2281.032715 
	C1163.807861,2293.916016 1162.370361,2306.839600 1162.506958,2319.730469 
	C1162.743896,2342.101318 1177.206299,2354.525635 1193.431641,2358.359375 
	C1207.044800,2361.576172 1220.602173,2359.780762 1234.133667,2359.484619 
	C1256.673096,2358.991455 1279.179565,2357.078857 1301.718994,2356.472168 
	C1314.302368,2356.133545 1326.920898,2357.407715 1339.529297,2357.627441 
	C1360.836304,2357.998779 1382.151855,2357.932129 1403.456299,2358.394775 
	C1417.051514,2358.689697 1430.627075,2359.868408 1444.222412,2360.175781 
	C1460.145874,2360.536133 1476.142944,2361.206787 1491.617798,2356.014404 
	C1502.481201,2352.369385 1510.233154,2345.747314 1512.430542,2334.068359 
	C1514.385132,2323.678711 1516.984009,2313.259521 1517.449097,2302.771484 
	C1518.401611,2281.285645 1518.376709,2259.742676 1518.199463,2238.227783 
	C1518.134399,2230.322266 1517.020508,2222.326904 1515.476685,2214.552734 
	C1512.093506,2197.516357 1503.846802,2190.224121 1486.461914,2188.042480 
	C1483.503052,2187.670898 1480.482666,2187.664062 1477.492188,2187.687256 
	C1453.183105,2187.875244 1428.874268,2188.103516 1404.565674,2188.343506 
	C1402.577515,2188.363037 1400.575684,2188.437988 1398.606323,2188.690186 
	C1384.355835,2190.517334 1370.143066,2190.245605 1355.984863,2187.879150 
	C1349.094238,2186.727539 1344.185059,2182.897705 1343.177002,2175.807617 
	C1341.875244,2166.650879 1340.898071,2157.409912 1340.509033,2148.174561 
	C1340.245972,2141.930664 1341.465332,2135.639648 1341.622925,2129.359619 
	C1341.990112,2114.718262 1341.387573,2100.012939 1342.546631,2085.442383 
	C1343.702637,2070.908936 1345.292358,2063.197266 1363.306763,2061.812500 
	C1380.485596,2060.492188 1397.800903,2060.582031 1415.052612,2060.682617 
	C1431.647949,2060.779297 1448.270142,2062.570801 1464.822266,2061.981934 
	C1481.065308,2061.403564 1493.519653,2052.943359 1499.187378,2037.376099 
	C1502.543335,2028.158691 1504.862793,2018.171143 1505.407104,2008.405029 
	C1506.517578,1988.476440 1506.553101,1968.454224 1506.136353,1948.489258 
	C1505.944458,1939.301636 1503.990356,1930.090454 1502.215454,1921.011108 
	C1499.820801,1908.760132 1491.266235,1902.516602 1479.669189,1899.935669 
	C1475.816040,1899.078003 1471.841675,1898.692749 1467.901489,1898.308838 
	C1446.255493,1896.199707 1424.843506,1899.663574 1403.332153,1900.972046 
	C1389.531494,1901.811401 1375.880249,1905.314697 1361.832275,1902.452637 
	C1349.253174,1899.889771 1343.006836,1895.163940 1342.034790,1882.566040 
	C1340.709717,1865.395508 1340.623779,1848.113525 1340.513672,1830.876099 
	C1340.487183,1826.723267 1342.347656,1822.527466 1343.526489,1818.404663 
	C1345.830200,1810.348145 1351.219116,1805.239868 1359.332520,1803.571655 
	C1366.431885,1802.112061 1373.656128,1800.729004 1380.869141,1800.451050 
	C1406.107544,1799.478271 1431.382446,1799.364502 1456.606934,1798.160156 
	C1467.453979,1797.642090 1478.342773,1795.851318 1488.969727,1793.527466 
	C1498.129150,1791.524658 1505.502441,1785.901611 1508.388794,1776.585205 
	C1510.811768,1768.764526 1513.143433,1760.590576 1513.434082,1752.498291 
	C1514.150024,1732.561523 1513.824097,1712.579956 1513.595947,1692.620117 
	C1513.497681,1684.017456 1513.003540,1675.376709 1511.993408,1666.835693 
	C1509.635010,1646.895020 1499.300171,1636.804565 1479.195801,1634.335205 
	C1475.244995,1633.849976 1471.215942,1633.544800 1467.249268,1633.727295 
	C1451.002930,1634.475220 1434.769897,1635.505615 1418.526123,1636.313599 
	C1403.277100,1637.072021 1388.008179,1637.475464 1372.770264,1638.400879 
	C1346.311035,1640.007935 1319.871094,1641.928467 1293.419189,1643.658447 
	C1270.921875,1645.129761 1248.383057,1646.114624 1225.935547,1648.129150 
	C1216.116089,1649.010254 1206.352051,1651.451904 1196.792480,1654.034302 
	C1186.080566,1656.928223 1178.854492,1664.251465 1175.990112,1674.981567 
	C1174.127563,1681.958252 1172.680054,1689.248413 1172.520020,1696.430908 
	C1172.261841,1708.020508 1173.651611,1719.640015 1173.577759,1731.241943 
	C1173.382812,1761.834961 1172.675171,1792.424194 1172.367798,1823.016968 
	C1172.173584,1842.342773 1172.331421,1861.671997 1172.331421,1882.999878 
M2317.157471,1974.061890 
	C2317.320557,1973.081909 2317.612549,1972.103882 2317.628174,1971.121460 
	C2318.323730,1927.886230 2319.073486,1884.651855 2319.640869,1841.415039 
	C2320.011963,1813.115845 2320.230469,1784.813599 2320.309570,1756.511963 
	C2320.420654,1716.865723 2320.585449,1677.216187 2320.163086,1637.574097 
	C2320.058105,1627.737183 2318.110596,1617.866333 2316.411621,1608.115479 
	C2314.850342,1599.157349 2308.992920,1593.213989 2300.449463,1590.731201 
	C2294.476318,1588.994995 2288.091309,1587.757324 2281.907959,1587.829468 
	C2260.655762,1588.077515 2239.407959,1588.907227 2218.165283,1589.699463 
	C2205.240967,1590.181519 2192.280762,1590.523926 2179.426025,1591.815918 
	C2168.254395,1592.938965 2157.145752,1594.997192 2146.122803,1597.208130 
	C2133.583008,1599.723511 2126.666992,1608.346191 2124.337158,1620.381714 
	C2122.770752,1628.473999 2121.728271,1636.826538 2121.812500,1645.048828 
	C2122.040527,1667.299438 2123.511475,1689.541992 2123.538818,1711.788818 
	C2123.578369,1743.714233 2122.719238,1775.640015 2122.343750,1807.566772 
	C2121.635010,1867.793213 2121.080566,1928.021484 2120.302002,1988.246948 
	C2119.790527,2027.819824 2118.961914,2067.388672 2118.347412,2106.960205 
	C2118.037109,2126.930908 2117.956787,2146.905273 2117.643555,2166.875977 
	C2117.278564,2190.140869 2116.775391,2213.403564 2116.326660,2236.667236 
	C2116.108154,2247.977051 2115.727783,2259.286133 2115.688232,2270.596680 
	C2115.633789,2286.133057 2115.431396,2301.688477 2116.108887,2317.199951 
	C2116.407959,2324.045654 2118.221680,2330.953125 2120.231689,2337.563965 
	C2122.808350,2346.037354 2128.554688,2352.363281 2137.429688,2354.011475 
	C2150.411865,2356.422607 2163.540039,2358.961182 2176.677246,2359.424072 
	C2200.968262,2360.279297 2225.330811,2360.258545 2249.623291,2359.428223 
	C2262.425781,2358.990723 2275.190918,2356.353760 2287.883789,2354.187744 
	C2297.829834,2352.490479 2305.029053,2346.336914 2308.160156,2336.940430 
	C2311.061035,2328.234619 2313.515137,2319.061035 2314.074219,2309.964844 
	C2315.026123,2294.481201 2314.423828,2278.895996 2314.316650,2263.354492 
	C2314.185791,2244.381348 2313.697510,2225.408936 2313.716797,2206.436768 
	C2313.741699,2181.800293 2314.061279,2157.163330 2314.350830,2132.528076 
	C2314.742188,2099.268555 2315.214111,2066.010254 2315.674072,2032.751953 
	C2315.936523,2013.781860 2316.244873,1994.812378 2317.157471,1974.061890 
M866.330383,1352.998047 
	C865.838257,1376.929688 867.199951,1400.768677 869.631409,1424.572388 
	C872.236694,1450.077759 876.966370,1475.110107 885.957947,1499.184692 
	C900.298035,1537.579590 927.228699,1561.842163 967.407288,1570.934814 
	C992.550598,1576.625122 1017.842957,1577.421143 1043.518311,1574.611572 
	C1065.437134,1572.213135 1086.818237,1568.280273 1107.202393,1559.785278 
	C1130.621094,1550.025391 1151.092407,1536.284302 1166.135986,1515.358154 
	C1178.443115,1498.238525 1184.415527,1478.709595 1188.368652,1458.307007 
	C1194.459106,1426.873413 1194.469360,1394.946045 1195.356445,1363.201538 
	C1196.303589,1329.312500 1195.258301,1295.338989 1194.171143,1261.431641 
	C1193.445312,1238.791748 1188.815552,1216.718384 1180.320679,1195.547485 
	C1168.448730,1165.960205 1148.105713,1145.024170 1118.458252,1132.854248 
	C1099.764282,1125.180542 1080.154907,1121.719727 1060.363281,1120.604614 
	C1031.138672,1118.958008 1001.887939,1120.286743 973.420105,1128.261719 
	C940.393494,1137.513794 912.114258,1153.680786 893.989075,1184.191895 
	C882.658752,1203.264893 875.732178,1223.890137 872.131226,1245.710083 
	C867.852295,1271.638062 867.109375,1297.827637 866.370605,1324.010620 
	C866.116943,1333.000000 866.330383,1342.002319 866.330383,1352.998047 
M1530.721802,1143.165771 
	C1528.855591,1133.535278 1521.784424,1130.115356 1513.247192,1129.949097 
	C1492.596924,1129.546509 1471.926880,1129.450562 1451.279663,1129.904053 
	C1441.320190,1130.122681 1436.101440,1135.236084 1434.447266,1145.024658 
	C1433.291260,1151.864502 1432.467041,1158.847290 1432.415894,1165.773071 
	C1432.034790,1217.409790 1431.891113,1269.048096 1431.640015,1320.685791 
	C1431.626099,1323.555786 1431.317749,1326.424316 1431.159546,1329.073730 
	C1426.371216,1329.073730 1422.494385,1329.073730 1418.753784,1329.073730 
	C1396.962280,1270.624634 1377.297485,1212.093262 1359.135132,1153.042236 
	C1353.169434,1133.646729 1352.385376,1128.405396 1326.102783,1128.339355 
	C1307.106934,1128.291748 1288.109619,1128.208984 1269.115723,1128.408569 
	C1263.857544,1128.463745 1258.551636,1129.158447 1253.369385,1130.112915 
	C1243.914673,1131.854370 1237.801270,1137.563599 1236.177734,1147.109253 
	C1234.903687,1154.599487 1233.774170,1162.231567 1233.764526,1169.802002 
	C1233.615723,1286.777100 1233.626709,1403.752319 1233.742432,1520.727417 
	C1233.749634,1527.978027 1234.385132,1535.328003 1235.690796,1542.455444 
	C1238.052368,1555.348755 1241.701050,1558.963989 1254.816650,1559.543335 
	C1270.416870,1560.232788 1286.082275,1559.973511 1301.699951,1559.492188 
	C1308.241089,1559.290527 1314.726929,1557.429688 1321.247070,1556.380859 
	C1329.960327,1554.979370 1334.806641,1549.569946 1336.167114,1541.208008 
	C1337.280029,1534.366943 1338.223999,1527.405884 1338.246948,1520.494629 
	C1338.417725,1469.172852 1338.339478,1417.850098 1338.339478,1366.527710 
	C1338.339478,1363.041626 1338.339478,1359.555542 1338.339478,1356.268066 
	C1343.686523,1356.268066 1347.572510,1356.268066 1351.024048,1356.268066 
	C1361.957153,1388.378418 1372.714355,1419.807373 1383.355347,1451.275391 
	C1392.398315,1478.017578 1400.842041,1504.973022 1410.426270,1531.517944 
	C1417.746216,1551.791382 1422.301147,1554.564819 1443.592285,1554.244141 
	C1463.183716,1553.949097 1482.764404,1552.922852 1502.348389,1552.182861 
	C1504.338623,1552.107544 1506.340210,1551.902344 1508.301514,1551.558594 
	C1520.519775,1549.418091 1526.010498,1544.170166 1528.491943,1531.635864 
	C1529.515137,1526.467651 1530.135742,1521.152222 1530.259155,1515.887695 
	C1530.521973,1504.685425 1530.339478,1493.472656 1530.339478,1482.264282 
	C1530.339478,1458.602661 1530.401978,1434.940796 1530.312744,1411.279541 
	C1530.268799,1399.633423 1529.603149,1387.982056 1529.825684,1376.344482 
	C1530.161987,1358.750244 1531.499512,1341.168335 1531.581543,1323.577271 
	C1531.827148,1270.922852 1531.676880,1218.266602 1531.661499,1165.611084 
	C1531.659424,1158.641357 1531.543335,1151.671631 1530.721802,1143.165771 
M2059.659668,1278.999878 
	C2059.659668,1351.966064 2059.609619,1424.932251 2059.744629,1497.898193 
	C2059.756836,1504.479492 2060.550049,1511.132568 2061.713867,1517.620972 
	C2063.334717,1526.656738 2067.469238,1531.386475 2075.989746,1531.398193 
	C2094.902344,1531.423950 2113.855225,1530.800781 2132.710938,1529.374268 
	C2140.225586,1528.805786 2147.760254,1523.899048 2148.294922,1513.967407 
	C2148.543213,1509.359619 2149.600342,1504.774902 2149.609375,1500.178223 
	C2149.708496,1450.867798 2149.671387,1401.557007 2149.671387,1352.246338 
	C2149.671387,1348.981812 2149.671143,1345.717285 2149.671143,1342.267334 
	C2153.952881,1342.267334 2157.420166,1342.267334 2160.826904,1342.267334 
	C2175.020508,1387.789551 2188.948730,1432.786499 2203.122070,1477.706055 
	C2207.011230,1490.031860 2211.695312,1502.105225 2215.898926,1514.334229 
	C2218.811768,1522.807739 2225.237549,1526.375488 2233.542236,1526.221558 
	C2254.456055,1525.833618 2275.377197,1525.280151 2296.263428,1524.184692 
	C2306.299316,1523.658569 2312.193115,1518.178101 2314.086670,1508.324341 
	C2315.454102,1501.207642 2316.227783,1493.862793 2316.235596,1486.618652 
	C2316.266602,1457.650146 2315.551758,1428.678589 2315.769775,1399.713135 
	C2315.977539,1372.131592 2317.333984,1344.558838 2317.555664,1316.977051 
	C2317.707764,1298.048584 2316.538818,1279.113159 2316.397217,1260.177612 
	C2316.180420,1231.192505 2316.260498,1202.204346 2316.401123,1173.218262 
	C2316.433105,1166.613647 2317.797119,1159.992310 2317.562988,1153.413696 
	C2316.894287,1134.638916 2308.950928,1132.402710 2296.553955,1131.685425 
	C2294.561523,1131.570190 2292.556885,1131.666626 2290.557861,1131.666626 
	C2279.229736,1131.666382 2267.901611,1131.661255 2256.573486,1131.667725 
	C2236.770264,1131.678955 2231.912842,1136.380981 2231.682373,1156.332886 
	C2231.167480,1200.920166 2230.764404,1245.508789 2230.337646,1290.097168 
	C2230.273926,1296.760132 2230.356934,1303.424438 2230.313232,1310.087646 
	C2230.298340,1312.357666 2230.103271,1314.626587 2229.971436,1317.280029 
	C2226.254639,1317.280029 2223.083008,1317.280029 2219.890381,1317.280029 
	C2219.283691,1316.270996 2218.590088,1315.491577 2218.301270,1314.583374 
	C2204.010010,1269.674683 2189.705566,1224.770020 2175.527588,1179.825562 
	C2172.035156,1168.753784 2169.098145,1157.507690 2165.667236,1146.415405 
	C2162.238281,1135.329224 2158.335693,1132.014526 2148.340820,1131.700684 
	C2130.412354,1131.137939 2112.479492,1130.593506 2094.544678,1130.432251 
	C2088.629639,1130.379028 2082.626953,1131.125488 2076.802246,1132.232544 
	C2069.030762,1133.709839 2063.388672,1138.193848 2061.920654,1146.354492 
	C2060.811279,1152.522827 2059.791016,1158.811279 2059.757812,1165.051758 
	C2059.559814,1202.366943 2059.659668,1239.683594 2059.659668,1278.999878 
M608.232605,1221.463867 
	C596.948792,1256.199463 593.766174,1292.198608 592.530640,1328.348145 
	C591.850525,1348.247681 592.798218,1368.237793 593.783691,1388.148804 
	C594.651367,1405.676880 596.017761,1423.223511 598.192261,1440.633545 
	C601.552185,1467.534912 609.055847,1493.237305 623.494019,1516.525635 
	C638.664856,1540.995483 658.916382,1559.396484 686.334595,1569.358643 
	C712.433105,1578.841553 739.766663,1578.360107 766.886475,1579.515625 
	C771.799561,1579.724854 776.765137,1578.783203 781.702271,1578.327393 
	C789.944946,1577.566528 798.268066,1577.263916 806.408142,1575.886963 
	C825.003967,1572.741333 833.725220,1562.495239 833.594238,1543.857788 
	C833.477539,1527.251221 832.802979,1510.645630 832.162842,1494.047729 
	C832.024048,1490.449463 831.293457,1486.796265 830.294678,1483.324097 
	C827.802979,1474.662354 821.871887,1469.790039 812.870911,1469.782837 
	C804.263245,1469.775879 795.620300,1470.348999 787.055298,1471.255737 
	C775.510193,1472.478027 764.434631,1471.106445 754.272583,1465.560547 
	C741.448120,1458.561768 737.038391,1446.120239 734.176697,1432.746460 
	C729.637085,1411.530396 729.445679,1389.918945 728.552979,1368.431396 
	C727.906494,1352.871094 729.016479,1337.219116 729.741028,1321.626587 
	C730.263977,1310.371094 731.092346,1299.105469 732.391785,1287.914917 
	C736.199646,1255.123413 758.663208,1239.496094 787.794189,1239.590332 
	C795.395325,1239.614868 803.027405,1238.910400 810.595886,1238.087158 
	C821.366394,1236.915527 828.767090,1230.058228 830.196716,1218.939575 
	C831.107971,1211.852295 830.345825,1204.550659 830.343262,1197.345093 
	C830.338501,1183.714966 830.530151,1170.081421 830.292236,1156.455444 
	C829.982056,1138.689941 822.410095,1130.461914 804.712524,1128.204102 
	C801.751099,1127.826294 798.741028,1127.709351 795.752075,1127.690063 
	C786.087769,1127.627563 776.421753,1127.574951 766.758301,1127.684082 
	C737.663635,1128.012695 709.219788,1132.621948 681.897400,1142.570557 
	C661.985168,1149.820679 644.203918,1160.822876 630.827087,1177.785034 
	C620.845703,1190.441528 613.981628,1204.789062 608.232605,1221.463867 
M1973.103882,1277.668701 
	C1962.918579,1277.869141 1952.705322,1278.616821 1942.556763,1278.097656 
	C1934.360718,1277.678467 1930.980225,1274.496460 1930.349487,1266.325195 
	C1929.532227,1255.738037 1929.573120,1245.017578 1930.189819,1234.409546 
	C1930.621582,1226.980225 1934.253906,1223.866699 1941.427368,1222.496094 
	C1944.031372,1221.998413 1946.722778,1221.710571 1949.370850,1221.732544 
	C1962.686401,1221.842773 1976.005737,1222.391235 1989.313721,1222.172974 
	C1997.559326,1222.037720 2005.820190,1221.063843 2014.011719,1219.989624 
	C2020.291504,1219.166138 2023.859009,1214.628540 2025.627075,1208.962280 
	C2026.794312,1205.221436 2027.613770,1201.180054 2027.565796,1197.286011 
	C2027.385986,1182.677490 2027.056030,1168.059570 2026.265625,1153.473145 
	C2025.496826,1139.286011 2020.355103,1133.277222 2006.559082,1131.846924 
	C1994.177124,1130.563354 1981.641724,1130.459351 1969.171021,1130.389771 
	C1936.509155,1130.207520 1903.844727,1130.225586 1871.182739,1130.404907 
	C1863.585693,1130.446655 1855.948486,1131.100952 1848.410156,1132.087524 
	C1836.144043,1133.692871 1831.796509,1137.972900 1829.691650,1150.280518 
	C1828.804443,1155.468140 1828.392944,1160.804688 1828.438599,1166.067627 
	C1828.498779,1173.010864 1829.593750,1179.947998 1829.601440,1186.888428 
	C1829.690674,1267.212646 1829.749756,1347.537231 1829.575195,1427.861206 
	C1829.543579,1442.453735 1828.626587,1457.055908 1827.753052,1471.631836 
	C1826.841553,1486.842163 1825.072266,1502.009521 1824.468384,1517.226929 
	C1824.031494,1528.237183 1829.752686,1535.423828 1840.544678,1538.213257 
	C1845.910156,1539.599976 1851.702026,1540.272827 1857.221191,1539.940674 
	C1870.100830,1539.165894 1882.908325,1537.011353 1895.789062,1536.472900 
	C1914.080444,1535.708130 1932.413086,1535.979248 1950.725098,1535.647583 
	C1969.331055,1535.310547 1987.939209,1534.944214 2006.535278,1534.278809 
	C2020.674805,1533.772827 2027.637329,1528.377441 2029.696655,1515.686157 
	C2033.062866,1494.941284 2033.531250,1474.066162 2030.075806,1453.256958 
	C2028.888306,1446.105835 2024.883057,1440.512817 2017.276978,1439.912964 
	C2005.406860,1438.976807 1993.459473,1438.676270 1981.547119,1438.718994 
	C1969.619507,1438.761719 1957.685669,1440.078857 1945.771240,1439.872681 
	C1934.015991,1439.669189 1931.385498,1436.581055 1930.377441,1424.928223 
	C1930.205688,1422.942993 1930.281128,1420.928467 1930.351807,1418.931396 
	C1930.773926,1406.990723 1931.306152,1395.053345 1931.648682,1383.110596 
	C1931.952393,1372.526978 1934.531494,1368.737061 1944.880981,1368.512573 
	C1960.785400,1368.167480 1976.725220,1368.790894 1992.632690,1369.434937 
	C2009.443359,1370.115234 2019.211060,1364.582886 2022.183228,1349.575439 
	C2025.711182,1331.762451 2025.351440,1313.827759 2022.713623,1296.034912 
	C2020.760498,1282.860962 2015.260254,1278.403931 2002.062012,1277.765625 
	C1993.083740,1277.331543 1984.067993,1277.671875 1973.103882,1277.668701 
M1728.341064,1347.000122 
	C1728.341064,1321.004883 1728.394775,1295.009399 1728.312500,1269.014404 
	C1728.282959,1259.700439 1727.550049,1250.376709 1727.815918,1241.076904 
	C1728.114746,1230.624146 1732.038818,1226.910278 1742.578857,1226.381958 
	C1751.551147,1225.932373 1760.544434,1225.918213 1769.527222,1225.664795 
	C1781.716797,1225.320923 1788.024780,1220.320679 1790.110107,1208.316528 
	C1791.409058,1200.839111 1792.037231,1193.186523 1792.248413,1185.592529 
	C1792.581665,1173.604980 1792.672241,1161.586304 1792.194336,1149.607666 
	C1791.729248,1137.953979 1787.405273,1133.658203 1775.864502,1132.100830 
	C1772.582275,1131.657959 1769.221069,1131.665894 1765.897461,1131.688110 
	C1750.920654,1131.788086 1735.940186,1132.256104 1720.969238,1132.035156 
	C1706.704712,1131.824585 1692.450928,1130.458740 1678.191528,1130.443481 
	C1659.254028,1130.423218 1640.317261,1131.317017 1621.377075,1131.630249 
	C1609.715698,1131.823120 1598.048706,1131.653564 1586.384155,1131.675171 
	C1583.722046,1131.680176 1581.041870,1131.627441 1578.401123,1131.900879 
	C1566.146240,1133.169800 1557.596924,1139.783813 1555.998413,1152.092163 
	C1554.386963,1164.501343 1554.652710,1177.217529 1554.909424,1189.782593 
	C1555.063599,1197.329712 1556.353027,1204.933228 1557.909668,1212.348389 
	C1559.302612,1218.983154 1563.277100,1223.682373 1570.738403,1224.346680 
	C1576.995972,1224.904053 1583.225220,1225.788940 1589.485596,1226.303345 
	C1597.738037,1226.981323 1606.021606,1227.296509 1614.266357,1228.047241 
	C1618.876587,1228.467163 1622.515625,1230.020020 1622.393921,1235.947388 
	C1622.065430,1251.930786 1622.227539,1267.924316 1621.881226,1283.906982 
	C1621.644287,1294.840576 1620.370972,1305.767700 1620.479370,1316.688721 
	C1620.620728,1330.944824 1622.225830,1345.191650 1622.230225,1359.442749 
	C1622.247681,1415.081177 1621.845947,1470.719604 1621.684326,1526.358276 
	C1621.643555,1540.410645 1626.927612,1546.675781 1640.937622,1547.609253 
	C1650.477539,1548.244629 1660.135620,1547.339233 1669.729248,1546.879517 
	C1680.267090,1546.374756 1690.815186,1544.784912 1701.317017,1545.092773 
	C1724.911621,1545.784668 1730.763672,1536.984497 1730.349243,1519.743530 
	C1730.277222,1516.745850 1730.386230,1513.743286 1730.289673,1510.746826 
	C1729.658691,1491.157593 1728.603882,1471.573120 1728.427368,1451.980347 
	C1728.118042,1417.656128 1728.341064,1383.327148 1728.341064,1347.000122 
M2394.326904,1299.094727 
	C2394.770508,1309.367920 2395.569580,1319.640137 2395.597412,1329.914429 
	C2395.731201,1379.569336 2395.713623,1429.225098 2395.598389,1478.880127 
	C2395.580811,1486.487427 2394.288818,1494.102661 2394.440186,1501.697144 
	C2394.674072,1513.446655 2399.052979,1518.195679 2410.650391,1520.586670 
	C2413.218018,1521.116089 2415.876221,1521.745605 2418.453369,1521.604980 
	C2437.318604,1520.574951 2456.183350,1519.495605 2475.026611,1518.130493 
	C2481.569824,1517.656494 2486.262207,1514.026123 2487.946289,1507.455688 
	C2488.842285,1503.959595 2489.621582,1500.297119 2489.570312,1496.722412 
	C2489.456543,1488.777954 2488.614258,1480.846558 2488.382080,1472.900757 
	C2488.012207,1460.259033 2487.717773,1447.610107 2487.705322,1434.963989 
	C2487.640625,1368.312622 2487.644287,1301.661133 2487.707520,1235.009766 
	C2487.716553,1225.468506 2490.482178,1222.447876 2499.981689,1221.863037 
	C2507.286865,1221.413086 2514.639160,1221.782715 2521.968506,1221.655884 
	C2533.186279,1221.461914 2537.987305,1217.599243 2540.884033,1206.528564 
	C2541.469238,1204.291748 2542.116455,1202.002197 2542.205811,1199.716309 
	C2542.777588,1185.116455 2544.071777,1170.473999 2543.455566,1155.916260 
	C2542.663086,1137.192627 2539.202393,1133.594482 2520.815186,1133.686768 
	C2507.836670,1133.751831 2494.853271,1134.353516 2481.882324,1134.126343 
	C2465.619629,1133.841797 2449.368164,1132.450562 2433.111328,1132.445190 
	C2408.842041,1132.437256 2384.569824,1133.102783 2360.304688,1133.717163 
	C2346.924561,1134.056030 2340.541748,1139.660400 2337.684326,1153.064819 
	C2336.931641,1156.594238 2336.333496,1160.257080 2336.406494,1163.843506 
	C2336.635498,1175.119873 2337.201172,1186.389648 2337.666992,1197.660889 
	C2338.391602,1215.207397 2343.277100,1220.309692 2360.959961,1221.683472 
	C2366.592285,1222.120972 2372.258301,1222.117065 2377.907959,1222.342041 
	C2380.559814,1222.447388 2383.257080,1222.344482 2385.850342,1222.805908 
	C2395.004883,1224.434326 2395.755127,1225.181763 2395.616943,1234.347778 
	C2395.301270,1255.287109 2394.770020,1276.223267 2394.326904,1299.094727 
M2814.902344,1508.335449 
	C2820.220215,1508.110718 2825.614014,1508.376343 2830.842041,1507.569092 
	C2846.599854,1505.135498 2859.262207,1501.988403 2858.386963,1477.369995 
	C2857.913574,1464.063965 2857.993164,1450.739014 2857.602539,1437.428955 
	C2857.506836,1434.169434 2856.926025,1430.810425 2855.907471,1427.714600 
	C2853.366211,1419.990601 2850.180664,1417.728516 2841.914551,1417.712158 
	C2835.265137,1417.698975 2828.615234,1418.267700 2821.964355,1418.295776 
	C2804.992676,1418.367188 2795.737061,1411.710205 2791.944580,1395.291992 
	C2789.645996,1385.341919 2788.197510,1375.032471 2787.829346,1364.831665 
	C2786.894775,1338.944824 2786.384277,1313.025635 2786.542725,1287.124634 
	C2786.604736,1276.937988 2788.422363,1266.676758 2790.286621,1256.606079 
	C2793.168213,1241.036255 2802.900391,1231.171997 2818.102051,1227.300171 
	C2823.800293,1225.848877 2829.940674,1225.987305 2835.893799,1225.710938 
	C2850.062256,1225.053223 2856.311279,1218.843872 2856.299072,1204.655762 
	C2856.289795,1193.674072 2855.854248,1182.693115 2855.689941,1171.710693 
	C2855.595703,1165.410034 2856.150146,1159.060913 2855.556396,1152.814941 
	C2854.410645,1140.759888 2848.462402,1134.700073 2836.465576,1133.815918 
	C2827.635742,1133.165039 2818.720215,1133.619263 2809.843262,1133.675781 
	C2791.375488,1133.793335 2773.526855,1137.365479 2756.482422,1144.336304 
	C2738.762695,1151.583374 2724.596191,1163.115356 2715.024170,1180.086426 
	C2707.580322,1193.284668 2703.298096,1207.510864 2700.066406,1222.134766 
	C2693.587402,1251.452515 2692.059082,1281.278442 2691.749023,1311.152832 
	C2691.459473,1339.052246 2692.549316,1366.931274 2696.076172,1394.650635 
	C2699.071533,1418.193115 2704.510498,1441.058228 2716.638184,1461.768799 
	C2731.381348,1486.945312 2751.800049,1504.064331 2782.166992,1506.364014 
	C2792.414795,1507.140259 2802.680176,1507.684814 2814.902344,1508.335449 
M2575.656494,1217.001099 
	C2575.212891,1271.221436 2574.769043,1325.441895 2574.325684,1379.662231 
	C2574.102295,1406.950073 2573.776123,1434.237671 2573.705566,1461.525879 
	C2573.675293,1473.163452 2573.449951,1484.877197 2574.636719,1496.420410 
	C2575.943359,1509.132202 2580.439209,1513.018311 2593.416504,1513.562378 
	C2606.681152,1514.118530 2619.998779,1513.969971 2633.271729,1513.508179 
	C2638.808105,1513.315430 2644.337158,1511.716431 2649.782471,1510.397949 
	C2657.097656,1508.626709 2660.964355,1503.364746 2662.131104,1496.287842 
	C2663.041748,1490.764404 2663.650146,1485.109253 2663.583252,1479.522339 
	C2663.416016,1465.591064 2662.354004,1451.662842 2662.427979,1437.737671 
	C2662.620850,1401.497559 2663.472900,1365.260620 2663.617432,1329.020630 
	C2663.834961,1274.410156 2663.712891,1219.798218 2663.615967,1165.187134 
	C2663.605957,1159.589111 2663.063232,1153.952759 2662.275879,1148.403931 
	C2660.870117,1138.497070 2657.569580,1134.457275 2647.743408,1133.855713 
	C2630.200195,1132.781982 2612.547363,1131.894409 2595.017822,1132.673706 
	C2578.018066,1133.429443 2574.254639,1138.493164 2574.391846,1156.234741 
	C2574.543457,1175.825806 2575.212646,1195.412964 2575.656494,1217.001099 
z"/>
<path fill="#FEFEFE" opacity="1.000000" stroke="none" 
	d="
M2860.068359,1987.941406 
	C2871.499268,2047.048218 2881.894287,2105.488037 2894.314209,2163.494385 
	C2901.530029,2197.196777 2912.379150,2230.106201 2920.829346,2263.565186 
	C2924.712891,2278.940430 2927.513916,2294.687988 2929.416504,2310.434570 
	C2931.156250,2324.830322 2925.967773,2337.215820 2913.919678,2346.148926 
	C2904.617676,2353.045898 2894.196045,2357.256104 2882.710205,2358.231445 
	C2872.474121,2359.100830 2862.176025,2359.555664 2851.902344,2359.606689 
	C2818.570312,2359.772217 2785.236328,2359.554932 2751.904297,2359.723145 
	C2738.098633,2359.792725 2726.361816,2355.206055 2717.522949,2344.714111 
	C2714.032227,2340.570801 2710.979004,2335.270508 2709.894531,2330.047119 
	C2707.344971,2317.767822 2705.753906,2305.254395 2704.420410,2292.766846 
	C2702.905518,2278.579102 2701.863037,2264.369873 2697.167725,2250.732666 
	C2691.381348,2233.926025 2679.489746,2224.270264 2662.119873,2222.384277 
	C2641.983643,2220.198486 2621.786133,2220.538818 2602.155273,2226.458008 
	C2596.485840,2228.167480 2590.925781,2230.630127 2585.758545,2233.535645 
	C2573.229248,2240.580322 2569.513428,2250.922607 2570.730225,2265.396240 
	C2572.620850,2287.884766 2573.462891,2310.483887 2566.331299,2332.510254 
	C2562.916748,2343.055664 2556.431641,2350.829346 2545.937500,2354.046387 
	C2537.165527,2356.736084 2527.929443,2359.309570 2518.867676,2359.421875 
	C2474.875244,2359.968262 2430.871582,2359.758057 2386.873291,2359.562500 
	C2380.966309,2359.536133 2374.922852,2358.630859 2369.189697,2357.166016 
	C2354.308350,2353.364502 2346.504883,2342.251465 2347.850098,2325.631348 
	C2348.701904,2315.106934 2350.594482,2304.550537 2353.180908,2294.301514 
	C2369.505859,2229.615234 2386.342529,2165.057861 2402.545410,2100.341309 
	C2405.911377,2086.896484 2408.498047,2073.040039 2409.400146,2059.239502 
	C2411.380859,2028.938843 2418.264893,1999.612427 2424.763916,1970.155273 
	C2439.341309,1904.083008 2453.959717,1838.019165 2468.294922,1771.894043 
	C2477.146973,1731.059692 2485.197021,1690.049927 2494.220215,1649.254517 
	C2498.821289,1628.452637 2505.570557,1608.302124 2517.661621,1590.327026 
	C2526.865967,1576.643433 2538.843262,1569.476074 2555.947021,1569.414185 
	C2575.812500,1569.342285 2595.668701,1567.291382 2615.533691,1566.191040 
	C2632.106934,1565.273315 2648.687988,1564.497803 2665.264648,1563.642090 
	C2686.463867,1562.547729 2707.658691,1561.350708 2728.864746,1560.414673 
	C2732.437012,1560.256958 2736.065674,1561.136597 2739.654297,1561.635376 
	C2752.221436,1563.382080 2760.086426,1570.737793 2763.699707,1582.594116 
	C2769.893066,1602.915283 2776.492432,1623.147339 2781.717529,1643.722412 
	C2798.137695,1708.382446 2813.473633,1773.320801 2830.250488,1837.885986 
	C2842.284668,1884.198364 2850.079346,1931.268677 2858.335938,1978.288574 
	C2858.851318,1981.223267 2859.366943,1984.157959 2860.068359,1987.941406 
M2615.728271,1862.833130 
	C2615.258057,1865.433472 2614.757080,1868.028687 2614.322510,1870.634888 
	C2605.993896,1920.576050 2597.686768,1970.520752 2589.337891,2020.458374 
	C2587.916992,2028.958008 2589.643555,2033.854004 2596.805176,2037.896606 
	C2601.087402,2040.313843 2605.780029,2042.504028 2610.555420,2043.457642 
	C2626.618652,2046.665283 2642.847656,2047.025513 2658.952148,2043.684204 
	C2677.580811,2039.819092 2685.418945,2029.536255 2684.257568,2010.471802 
	C2683.755127,2002.220337 2682.809814,1993.953979 2681.415283,1985.805664 
	C2670.250977,1920.576050 2658.949707,1855.369873 2647.637939,1790.165649 
	C2646.013428,1780.801392 2644.109375,1771.485840 2642.226318,1761.577271 
	C2638.605713,1762.073486 2635.800781,1762.457886 2632.536621,1762.905273 
	C2627.011475,1795.926636 2621.556885,1828.527344 2615.728271,1862.833130 
z"/>
<path fill="#FEFEFE" opacity="1.000000" stroke="none" 
	d="
M1634.598877,1624.332886 
	C1660.771484,1623.441772 1686.023682,1622.956787 1711.224487,1621.550903 
	C1738.346436,1620.037720 1765.467285,1618.147827 1792.502563,1615.533325 
	C1823.565186,1612.529419 1854.184082,1614.942871 1884.264648,1622.406860 
	C1940.170410,1636.279175 1979.725708,1670.294556 2003.356323,1722.623779 
	C2019.309692,1757.952271 2028.493408,1795.316040 2033.682617,1833.581177 
	C2037.284912,1860.144165 2039.758667,1886.870972 2042.244751,1913.570312 
	C2043.504395,1927.099609 2043.998169,1940.723999 2044.273071,1954.316895 
	C2044.918823,1986.241211 2046.432373,2018.211548 2045.405640,2050.092529 
	C2043.513062,2108.857422 2037.808105,2167.227051 2018.074707,2223.251221 
	C2006.591064,2255.854492 1990.894653,2285.910400 1966.007935,2310.656006 
	C1945.511597,2331.035889 1921.580078,2345.187500 1893.907715,2353.249756 
	C1865.163330,2361.624268 1835.940918,2363.740479 1806.232666,2360.443115 
	C1800.964478,2359.858154 1795.609253,2359.891846 1790.295288,2359.913330 
	C1772.313354,2359.985840 1754.329346,2360.035156 1736.351074,2360.363525 
	C1706.437622,2360.909668 1676.529785,2361.758789 1646.616089,2362.288574 
	C1633.746826,2362.516357 1620.866089,2362.403809 1607.996948,2362.138184 
	C1604.414917,2362.064209 1600.861084,2360.860352 1597.284790,2360.228760 
	C1582.557617,2357.628418 1574.613892,2348.237549 1572.473755,2334.071777 
	C1570.547363,2321.320801 1569.005493,2308.437500 1568.497070,2295.564697 
	C1567.827026,2278.598633 1568.096924,2261.582031 1568.385620,2244.594238 
	C1568.854370,2217.011719 1569.695068,2189.435547 1570.325928,2161.855469 
	C1571.025513,2131.278320 1572.011719,2100.702881 1572.264282,2070.121582 
	C1572.910645,1991.881104 1573.468994,1913.638184 1573.545166,1835.395752 
	C1573.577759,1801.819824 1572.416504,1768.240601 1571.628052,1734.666748 
	C1571.136841,1713.747314 1570.036743,1692.839478 1569.741577,1671.918823 
	C1569.424072,1649.418945 1578.802002,1636.222778 1600.470581,1630.010376 
	C1611.193359,1626.936035 1622.573242,1626.153076 1634.598877,1624.332886 
M1745.658691,1849.346436 
	C1745.881958,1863.985840 1746.286499,1878.625244 1746.298218,1893.264771 
	C1746.361938,1972.547363 1746.342407,2051.830078 1746.300415,2131.112549 
	C1746.297241,2137.090820 1745.517090,2143.084473 1745.760864,2149.043945 
	C1746.207642,2159.957764 1746.420654,2170.964600 1748.092285,2181.720947 
	C1749.726929,2192.240234 1756.177368,2199.931396 1766.703857,2203.122314 
	C1780.500122,2207.304199 1794.172607,2206.478516 1807.550171,2201.020508 
	C1824.731567,2194.010498 1832.311523,2179.857422 1836.180664,2162.842041 
	C1841.501099,2139.445068 1842.082764,2115.540527 1843.520996,2091.767578 
	C1844.524658,2075.176514 1844.442871,2058.497070 1844.280884,2041.862793 
	C1843.778931,1990.303467 1843.505005,1938.732788 1842.077271,1887.196045 
	C1841.556885,1868.410522 1838.986328,1849.539307 1835.682617,1831.004517 
	C1829.915649,1798.650635 1806.798340,1782.235596 1774.800537,1786.286133 
	C1756.130127,1788.649536 1746.790771,1798.156250 1745.760376,1816.819336 
	C1745.198486,1826.996460 1745.659180,1837.230225 1745.658691,1849.346436 
z"/>
<path fill="#FEFEFE" opacity="1.000000" stroke="none" 
	d="
M1101.672485,2309.744385 
	C1100.568970,2320.227051 1099.779907,2329.788818 1098.290649,2339.240234 
	C1096.392456,2351.285645 1088.793701,2359.713867 1072.082397,2360.229736 
	C1056.766113,2360.702393 1041.423950,2360.330811 1026.093140,2360.331055 
	C1010.762329,2360.331055 995.430969,2360.403564 980.101074,2360.281738 
	C976.134766,2360.250244 972.092712,2359.992432 968.224548,2359.177734 
	C955.985657,2356.601318 948.028992,2349.381348 945.901062,2336.770508 
	C944.802246,2330.258301 943.767517,2323.632324 943.755798,2317.055664 
	C943.611389,2236.069336 943.940918,2155.081055 943.499451,2074.096924 
	C943.358521,2048.233887 941.314270,2022.381104 940.098938,1996.525757 
	C940.054138,1995.572266 939.565613,1994.639771 939.083740,1993.027954 
	C935.405579,1993.027954 931.574768,1993.027954 926.271423,1993.027954 
	C924.199463,2001.888428 921.928406,2011.414551 919.746887,2020.961182 
	C910.942932,2059.488281 901.108276,2097.737305 887.229431,2134.793701 
	C882.106323,2148.472412 876.479919,2162.087402 866.513733,2173.203125 
	C864.125488,2175.866699 861.268555,2178.238037 858.270203,2180.197754 
	C853.303528,2183.443848 847.967773,2183.641357 843.751526,2179.089355 
	C838.832336,2173.778320 833.818604,2168.345459 830.030884,2162.231445 
	C814.029846,2136.401855 803.182190,2108.113037 792.317444,2079.922607 
	C781.947632,2053.016846 772.503906,2025.753784 762.457703,1998.110107 
	C759.690125,1998.110107 756.449585,1998.110107 752.221130,1998.110107 
	C752.033630,2002.456421 751.693176,2006.688232 751.691711,2010.920044 
	C751.660767,2098.572266 751.888306,2186.225342 751.513550,2273.875732 
	C751.420105,2295.736572 749.821472,2317.621582 748.121216,2339.433594 
	C747.130432,2352.143799 742.541809,2356.428711 730.204346,2358.232910 
	C722.356750,2359.380371 714.388062,2360.146973 706.463928,2360.238770 
	C683.804016,2360.500977 661.132812,2359.998779 638.478149,2360.431152 
	C618.581482,2360.810791 608.157593,2350.910156 604.176453,2332.659424 
	C602.632874,2325.583740 601.774231,2318.210205 601.764465,2310.970459 
	C601.616333,2201.655518 601.596497,2092.340332 601.692200,1983.025024 
	C601.733337,1936.050537 601.960144,1889.074951 602.412598,1842.102783 
	C602.569275,1825.836792 604.269775,1809.576294 604.173767,1793.319580 
	C604.054199,1773.066284 602.696045,1752.822998 602.099182,1732.568726 
	C601.864563,1724.606201 601.577271,1716.549072 602.486145,1708.670288 
	C604.115234,1694.548096 611.150513,1687.011108 624.929688,1684.481323 
	C635.331665,1682.571655 645.884460,1681.158691 656.432556,1680.435059 
	C682.575989,1678.641357 708.749695,1677.259277 734.923706,1675.962036 
	C741.880249,1675.617188 748.899170,1675.911865 755.858765,1676.374756 
	C770.152222,1677.325195 780.272278,1684.729736 785.580872,1697.841553 
	C789.553162,1707.652710 793.186768,1717.734375 795.613098,1728.016113 
	C811.231140,1794.198730 826.475037,1860.469604 841.842163,1926.711304 
	C842.357788,1928.933838 842.878662,1931.154907 843.497375,1933.806152 
	C846.980286,1933.806152 850.168518,1933.806152 854.106750,1933.806152 
	C858.020508,1918.201904 861.972290,1902.493408 865.899719,1886.778809 
	C881.349670,1824.961060 896.682678,1763.113525 912.382080,1701.359131 
	C914.237244,1694.061890 917.696777,1687.076660 921.098633,1680.290527 
	C926.336853,1669.841309 935.843750,1665.125610 946.903015,1663.905884 
	C958.096497,1662.671265 969.388733,1662.286987 980.646118,1661.686768 
	C1006.820740,1660.291016 1032.996826,1658.911499 1059.180542,1657.705444 
	C1065.699097,1657.405029 1072.328857,1657.168701 1078.766846,1657.996826 
	C1089.571167,1659.386353 1097.009888,1665.322144 1099.969727,1676.255859 
	C1104.007568,1691.171997 1103.855469,1706.466187 1104.209961,1721.708374 
	C1104.317871,1726.350220 1103.798462,1731.003540 1103.679443,1735.654419 
	C1102.990356,1762.573853 1102.049927,1789.490479 1101.724121,1816.414551 
	C1100.890259,1885.325439 1099.959595,1954.238525 1099.768677,2023.152832 
	C1099.555420,2100.121094 1100.050049,2177.091553 1100.403320,2254.060547 
	C1100.461182,2266.662842 1101.469360,2279.258545 1101.855713,2291.862793 
	C1102.028320,2297.492920 1101.749634,2303.136719 1101.672485,2309.744385 
z"/>
<path fill="#FEFEFE" opacity="1.000000" stroke="none" 
	d="
M1172.331421,1881.999756 
	C1172.331421,1861.671997 1172.173584,1842.342773 1172.367798,1823.016968 
	C1172.675171,1792.424194 1173.382812,1761.834961 1173.577759,1731.241943 
	C1173.651611,1719.640015 1172.261841,1708.020508 1172.520020,1696.430908 
	C1172.680054,1689.248413 1174.127563,1681.958252 1175.990112,1674.981567 
	C1178.854492,1664.251465 1186.080566,1656.928223 1196.792480,1654.034302 
	C1206.352051,1651.451904 1216.116089,1649.010254 1225.935547,1648.129150 
	C1248.383057,1646.114624 1270.921875,1645.129761 1293.419189,1643.658447 
	C1319.871094,1641.928467 1346.311035,1640.007935 1372.770264,1638.400879 
	C1388.008179,1637.475464 1403.277100,1637.072021 1418.526123,1636.313599 
	C1434.769897,1635.505615 1451.002930,1634.475220 1467.249268,1633.727295 
	C1471.215942,1633.544800 1475.244995,1633.849976 1479.195801,1634.335205 
	C1499.300171,1636.804565 1509.635010,1646.895020 1511.993408,1666.835693 
	C1513.003540,1675.376709 1513.497681,1684.017456 1513.595947,1692.620117 
	C1513.824097,1712.579956 1514.150024,1732.561523 1513.434082,1752.498291 
	C1513.143433,1760.590576 1510.811768,1768.764526 1508.388794,1776.585205 
	C1505.502441,1785.901611 1498.129150,1791.524658 1488.969727,1793.527466 
	C1478.342773,1795.851318 1467.453979,1797.642090 1456.606934,1798.160156 
	C1431.382446,1799.364502 1406.107544,1799.478271 1380.869141,1800.451050 
	C1373.656128,1800.729004 1366.431885,1802.112061 1359.332520,1803.571655 
	C1351.219116,1805.239868 1345.830200,1810.348145 1343.526489,1818.404663 
	C1342.347656,1822.527466 1340.487183,1826.723267 1340.513672,1830.876099 
	C1340.623779,1848.113525 1340.709717,1865.395508 1342.034790,1882.566040 
	C1343.006836,1895.163940 1349.253174,1899.889771 1361.832275,1902.452637 
	C1375.880249,1905.314697 1389.531494,1901.811401 1403.332153,1900.972046 
	C1424.843506,1899.663574 1446.255493,1896.199707 1467.901489,1898.308838 
	C1471.841675,1898.692749 1475.816040,1899.078003 1479.669189,1899.935669 
	C1491.266235,1902.516602 1499.820801,1908.760132 1502.215454,1921.011108 
	C1503.990356,1930.090454 1505.944458,1939.301636 1506.136353,1948.489258 
	C1506.553101,1968.454224 1506.517578,1988.476440 1505.407104,2008.405029 
	C1504.862793,2018.171143 1502.543335,2028.158691 1499.187378,2037.376099 
	C1493.519653,2052.943359 1481.065308,2061.403564 1464.822266,2061.981934 
	C1448.270142,2062.570801 1431.647949,2060.779297 1415.052612,2060.682617 
	C1397.800903,2060.582031 1380.485596,2060.492188 1363.306763,2061.812500 
	C1345.292358,2063.197266 1343.702637,2070.908936 1342.546631,2085.442383 
	C1341.387573,2100.012939 1341.990112,2114.718262 1341.622925,2129.359619 
	C1341.465332,2135.639648 1340.245972,2141.930664 1340.509033,2148.174561 
	C1340.898071,2157.409912 1341.875244,2166.650879 1343.177002,2175.807617 
	C1344.185059,2182.897705 1349.094238,2186.727539 1355.984863,2187.879150 
	C1370.143066,2190.245605 1384.355835,2190.517334 1398.606323,2188.690186 
	C1400.575684,2188.437988 1402.577515,2188.363037 1404.565674,2188.343506 
	C1428.874268,2188.103516 1453.183105,2187.875244 1477.492188,2187.687256 
	C1480.482666,2187.664062 1483.503052,2187.670898 1486.461914,2188.042480 
	C1503.846802,2190.224121 1512.093506,2197.516357 1515.476685,2214.552734 
	C1517.020508,2222.326904 1518.134399,2230.322266 1518.199463,2238.227783 
	C1518.376709,2259.742676 1518.401611,2281.285645 1517.449097,2302.771484 
	C1516.984009,2313.259521 1514.385132,2323.678711 1512.430542,2334.068359 
	C1510.233154,2345.747314 1502.481201,2352.369385 1491.617798,2356.014404 
	C1476.142944,2361.206787 1460.145874,2360.536133 1444.222412,2360.175781 
	C1430.627075,2359.868408 1417.051514,2358.689697 1403.456299,2358.394775 
	C1382.151855,2357.932129 1360.836304,2357.998779 1339.529297,2357.627441 
	C1326.920898,2357.407715 1314.302368,2356.133545 1301.718994,2356.472168 
	C1279.179565,2357.078857 1256.673096,2358.991455 1234.133667,2359.484619 
	C1220.602173,2359.780762 1207.044800,2361.576172 1193.431641,2358.359375 
	C1177.206299,2354.525635 1162.743896,2342.101318 1162.506958,2319.730469 
	C1162.370361,2306.839600 1163.807861,2293.916016 1164.853760,2281.032715 
	C1166.542114,2260.233887 1169.606567,2239.483643 1170.110107,2218.665039 
	C1171.333496,2168.090820 1171.623657,2117.490723 1171.908936,2066.898682 
	C1172.254395,2005.600220 1172.208130,1944.299561 1172.331421,1881.999756 
z"/>
<path fill="#FEFEFE" opacity="1.000000" stroke="none" 
	d="
M2316.844971,1974.952271 
	C2316.244873,1994.812378 2315.936523,2013.781860 2315.674072,2032.751953 
	C2315.214111,2066.010254 2314.742188,2099.268555 2314.350830,2132.528076 
	C2314.061279,2157.163330 2313.741699,2181.800293 2313.716797,2206.436768 
	C2313.697510,2225.408936 2314.185791,2244.381348 2314.316650,2263.354492 
	C2314.423828,2278.895996 2315.026123,2294.481201 2314.074219,2309.964844 
	C2313.515137,2319.061035 2311.061035,2328.234619 2308.160156,2336.940430 
	C2305.029053,2346.336914 2297.829834,2352.490479 2287.883789,2354.187744 
	C2275.190918,2356.353760 2262.425781,2358.990723 2249.623291,2359.428223 
	C2225.330811,2360.258545 2200.968262,2360.279297 2176.677246,2359.424072 
	C2163.540039,2358.961182 2150.411865,2356.422607 2137.429688,2354.011475 
	C2128.554688,2352.363281 2122.808350,2346.037354 2120.231689,2337.563965 
	C2118.221680,2330.953125 2116.407959,2324.045654 2116.108887,2317.199951 
	C2115.431396,2301.688477 2115.633789,2286.133057 2115.688232,2270.596680 
	C2115.727783,2259.286133 2116.108154,2247.977051 2116.326660,2236.667236 
	C2116.775391,2213.403564 2117.278564,2190.140869 2117.643555,2166.875977 
	C2117.956787,2146.905273 2118.037109,2126.930908 2118.347412,2106.960205 
	C2118.961914,2067.388672 2119.790527,2027.819824 2120.302002,1988.246948 
	C2121.080566,1928.021484 2121.635010,1867.793213 2122.343750,1807.566772 
	C2122.719238,1775.640015 2123.578369,1743.714233 2123.538818,1711.788818 
	C2123.511475,1689.541992 2122.040527,1667.299438 2121.812500,1645.048828 
	C2121.728271,1636.826538 2122.770752,1628.473999 2124.337158,1620.381714 
	C2126.666992,1608.346191 2133.583008,1599.723511 2146.122803,1597.208130 
	C2157.145752,1594.997192 2168.254395,1592.938965 2179.426025,1591.815918 
	C2192.280762,1590.523926 2205.240967,1590.181519 2218.165283,1589.699463 
	C2239.407959,1588.907227 2260.655762,1588.077515 2281.907959,1587.829468 
	C2288.091309,1587.757324 2294.476318,1588.994995 2300.449463,1590.731201 
	C2308.992920,1593.213989 2314.850342,1599.157349 2316.411621,1608.115479 
	C2318.110596,1617.866333 2320.058105,1627.737183 2320.163086,1637.574097 
	C2320.585449,1677.216187 2320.420654,1716.865723 2320.309570,1756.511963 
	C2320.230469,1784.813599 2320.011963,1813.115845 2319.640869,1841.415039 
	C2319.073486,1884.651855 2318.323730,1927.886230 2317.628174,1971.121460 
	C2317.612549,1972.103882 2317.320557,1973.081909 2316.844971,1974.952271 
z"/>
<path fill="#FEFEFE" opacity="1.000000" stroke="none" 
	d="
M866.330383,1351.998413 
	C866.330383,1342.002319 866.116943,1333.000000 866.370605,1324.010620 
	C867.109375,1297.827637 867.852295,1271.638062 872.131226,1245.710083 
	C875.732178,1223.890137 882.658752,1203.264893 893.989075,1184.191895 
	C912.114258,1153.680786 940.393494,1137.513794 973.420105,1128.261719 
	C1001.887939,1120.286743 1031.138672,1118.958008 1060.363281,1120.604614 
	C1080.154907,1121.719727 1099.764282,1125.180542 1118.458252,1132.854248 
	C1148.105713,1145.024170 1168.448730,1165.960205 1180.320679,1195.547485 
	C1188.815552,1216.718384 1193.445312,1238.791748 1194.171143,1261.431641 
	C1195.258301,1295.338989 1196.303589,1329.312500 1195.356445,1363.201538 
	C1194.469360,1394.946045 1194.459106,1426.873413 1188.368652,1458.307007 
	C1184.415527,1478.709595 1178.443115,1498.238525 1166.135986,1515.358154 
	C1151.092407,1536.284302 1130.621094,1550.025391 1107.202393,1559.785278 
	C1086.818237,1568.280273 1065.437134,1572.213135 1043.518311,1574.611572 
	C1017.842957,1577.421143 992.550598,1576.625122 967.407288,1570.934814 
	C927.228699,1561.842163 900.298035,1537.579590 885.957947,1499.184692 
	C876.966370,1475.110107 872.236694,1450.077759 869.631409,1424.572388 
	C867.199951,1400.768677 865.838257,1376.929688 866.330383,1351.998413 
M998.322205,1360.999878 
	C998.322205,1381.326904 997.981995,1401.662354 998.479614,1421.977173 
	C998.696838,1430.843628 1000.260254,1439.736206 1001.872131,1448.495483 
	C1004.218689,1461.247192 1012.480042,1468.059448 1025.202637,1469.199585 
	C1029.059692,1469.545288 1033.077759,1468.907471 1036.939331,1468.241089 
	C1049.799561,1466.021606 1059.615967,1459.556274 1062.091797,1446.114502 
	C1064.662109,1432.160278 1067.225220,1417.975342 1067.429077,1403.857178 
	C1068.093140,1357.880859 1067.783813,1311.888428 1067.592407,1265.903442 
	C1067.552002,1256.193481 1065.204224,1246.822754 1059.777344,1238.517578 
	C1052.949463,1228.068115 1042.807373,1223.459717 1030.832520,1224.587769 
	C1017.710938,1225.823975 1007.064697,1232.039917 1003.796936,1245.836548 
	C1001.218933,1256.720825 998.877319,1267.914673 998.564453,1279.031128 
	C997.814819,1305.668457 998.322205,1332.341309 998.322205,1360.999878 
z"/>
<path fill="#FEFEFE" opacity="1.000000" stroke="none" 
	d="
M1531.100952,1143.933838 
	C1531.543335,1151.671631 1531.659424,1158.641357 1531.661499,1165.611084 
	C1531.676880,1218.266602 1531.827148,1270.922852 1531.581543,1323.577271 
	C1531.499512,1341.168335 1530.161987,1358.750244 1529.825684,1376.344482 
	C1529.603149,1387.982056 1530.268799,1399.633423 1530.312744,1411.279541 
	C1530.401978,1434.940796 1530.339478,1458.602661 1530.339478,1482.264282 
	C1530.339478,1493.472656 1530.521973,1504.685425 1530.259155,1515.887695 
	C1530.135742,1521.152222 1529.515137,1526.467651 1528.491943,1531.635864 
	C1526.010498,1544.170166 1520.519775,1549.418091 1508.301514,1551.558594 
	C1506.340210,1551.902344 1504.338623,1552.107544 1502.348389,1552.182861 
	C1482.764404,1552.922852 1463.183716,1553.949097 1443.592285,1554.244141 
	C1422.301147,1554.564819 1417.746216,1551.791382 1410.426270,1531.517944 
	C1400.842041,1504.973022 1392.398315,1478.017578 1383.355347,1451.275391 
	C1372.714355,1419.807373 1361.957153,1388.378418 1351.024048,1356.268066 
	C1347.572510,1356.268066 1343.686523,1356.268066 1338.339478,1356.268066 
	C1338.339478,1359.555542 1338.339478,1363.041626 1338.339478,1366.527710 
	C1338.339478,1417.850098 1338.417725,1469.172852 1338.246948,1520.494629 
	C1338.223999,1527.405884 1337.280029,1534.366943 1336.167114,1541.208008 
	C1334.806641,1549.569946 1329.960327,1554.979370 1321.247070,1556.380859 
	C1314.726929,1557.429688 1308.241089,1559.290527 1301.699951,1559.492188 
	C1286.082275,1559.973511 1270.416870,1560.232788 1254.816650,1559.543335 
	C1241.701050,1558.963989 1238.052368,1555.348755 1235.690796,1542.455444 
	C1234.385132,1535.328003 1233.749634,1527.978027 1233.742432,1520.727417 
	C1233.626709,1403.752319 1233.615723,1286.777100 1233.764526,1169.802002 
	C1233.774170,1162.231567 1234.903687,1154.599487 1236.177734,1147.109253 
	C1237.801270,1137.563599 1243.914673,1131.854370 1253.369385,1130.112915 
	C1258.551636,1129.158447 1263.857544,1128.463745 1269.115723,1128.408569 
	C1288.109619,1128.208984 1307.106934,1128.291748 1326.102783,1128.339355 
	C1352.385376,1128.405396 1353.169434,1133.646729 1359.135132,1153.042236 
	C1377.297485,1212.093262 1396.962280,1270.624634 1418.753784,1329.073730 
	C1422.494385,1329.073730 1426.371216,1329.073730 1431.159546,1329.073730 
	C1431.317749,1326.424316 1431.626099,1323.555786 1431.640015,1320.685791 
	C1431.891113,1269.048096 1432.034790,1217.409790 1432.415894,1165.773071 
	C1432.467041,1158.847290 1433.291260,1151.864502 1434.447266,1145.024658 
	C1436.101440,1135.236084 1441.320190,1130.122681 1451.279663,1129.904053 
	C1471.926880,1129.450562 1492.596924,1129.546509 1513.247192,1129.949097 
	C1521.784424,1130.115356 1528.855591,1133.535278 1531.100952,1143.933838 
z"/>
<path fill="#FEFEFE" opacity="1.000000" stroke="none" 
	d="
M2059.659668,1277.999756 
	C2059.659668,1239.683594 2059.559814,1202.366943 2059.757812,1165.051758 
	C2059.791016,1158.811279 2060.811279,1152.522827 2061.920654,1146.354492 
	C2063.388672,1138.193848 2069.030762,1133.709839 2076.802246,1132.232544 
	C2082.626953,1131.125488 2088.629639,1130.379028 2094.544678,1130.432251 
	C2112.479492,1130.593506 2130.412354,1131.137939 2148.340820,1131.700684 
	C2158.335693,1132.014526 2162.238281,1135.329224 2165.667236,1146.415405 
	C2169.098145,1157.507690 2172.035156,1168.753784 2175.527588,1179.825562 
	C2189.705566,1224.770020 2204.010010,1269.674683 2218.301270,1314.583374 
	C2218.590088,1315.491577 2219.283691,1316.270996 2219.890381,1317.280029 
	C2223.083008,1317.280029 2226.254639,1317.280029 2229.971436,1317.280029 
	C2230.103271,1314.626587 2230.298340,1312.357666 2230.313232,1310.087646 
	C2230.356934,1303.424438 2230.273926,1296.760132 2230.337646,1290.097168 
	C2230.764404,1245.508789 2231.167480,1200.920166 2231.682373,1156.332886 
	C2231.912842,1136.380981 2236.770264,1131.678955 2256.573486,1131.667725 
	C2267.901611,1131.661255 2279.229736,1131.666382 2290.557861,1131.666626 
	C2292.556885,1131.666626 2294.561523,1131.570190 2296.553955,1131.685425 
	C2308.950928,1132.402710 2316.894287,1134.638916 2317.562988,1153.413696 
	C2317.797119,1159.992310 2316.433105,1166.613647 2316.401123,1173.218262 
	C2316.260498,1202.204346 2316.180420,1231.192505 2316.397217,1260.177612 
	C2316.538818,1279.113159 2317.707764,1298.048584 2317.555664,1316.977051 
	C2317.333984,1344.558838 2315.977539,1372.131592 2315.769775,1399.713135 
	C2315.551758,1428.678589 2316.266602,1457.650146 2316.235596,1486.618652 
	C2316.227783,1493.862793 2315.454102,1501.207642 2314.086670,1508.324341 
	C2312.193115,1518.178101 2306.299316,1523.658569 2296.263428,1524.184692 
	C2275.377197,1525.280151 2254.456055,1525.833618 2233.542236,1526.221558 
	C2225.237549,1526.375488 2218.811768,1522.807739 2215.898926,1514.334229 
	C2211.695312,1502.105225 2207.011230,1490.031860 2203.122070,1477.706055 
	C2188.948730,1432.786499 2175.020508,1387.789551 2160.826904,1342.267334 
	C2157.420166,1342.267334 2153.952881,1342.267334 2149.671143,1342.267334 
	C2149.671143,1345.717285 2149.671387,1348.981812 2149.671387,1352.246338 
	C2149.671387,1401.557007 2149.708496,1450.867798 2149.609375,1500.178223 
	C2149.600342,1504.774902 2148.543213,1509.359619 2148.294922,1513.967407 
	C2147.760254,1523.899048 2140.225586,1528.805786 2132.710938,1529.374268 
	C2113.855225,1530.800781 2094.902344,1531.423950 2075.989746,1531.398193 
	C2067.469238,1531.386475 2063.334717,1526.656738 2061.713867,1517.620972 
	C2060.550049,1511.132568 2059.756836,1504.479492 2059.744629,1497.898193 
	C2059.609619,1424.932251 2059.659668,1351.966064 2059.659668,1277.999756 
z"/>
<path fill="#FEFEFE" opacity="1.000000" stroke="none" 
	d="
M608.517639,1220.724243 
	C613.981628,1204.789062 620.845703,1190.441528 630.827087,1177.785034 
	C644.203918,1160.822876 661.985168,1149.820679 681.897400,1142.570557 
	C709.219788,1132.621948 737.663635,1128.012695 766.758301,1127.684082 
	C776.421753,1127.574951 786.087769,1127.627563 795.752075,1127.690063 
	C798.741028,1127.709351 801.751099,1127.826294 804.712524,1128.204102 
	C822.410095,1130.461914 829.982056,1138.689941 830.292236,1156.455444 
	C830.530151,1170.081421 830.338501,1183.714966 830.343262,1197.345093 
	C830.345825,1204.550659 831.107971,1211.852295 830.196716,1218.939575 
	C828.767090,1230.058228 821.366394,1236.915527 810.595886,1238.087158 
	C803.027405,1238.910400 795.395325,1239.614868 787.794189,1239.590332 
	C758.663208,1239.496094 736.199646,1255.123413 732.391785,1287.914917 
	C731.092346,1299.105469 730.263977,1310.371094 729.741028,1321.626587 
	C729.016479,1337.219116 727.906494,1352.871094 728.552979,1368.431396 
	C729.445679,1389.918945 729.637085,1411.530396 734.176697,1432.746460 
	C737.038391,1446.120239 741.448120,1458.561768 754.272583,1465.560547 
	C764.434631,1471.106445 775.510193,1472.478027 787.055298,1471.255737 
	C795.620300,1470.348999 804.263245,1469.775879 812.870911,1469.782837 
	C821.871887,1469.790039 827.802979,1474.662354 830.294678,1483.324097 
	C831.293457,1486.796265 832.024048,1490.449463 832.162842,1494.047729 
	C832.802979,1510.645630 833.477539,1527.251221 833.594238,1543.857788 
	C833.725220,1562.495239 825.003967,1572.741333 806.408142,1575.886963 
	C798.268066,1577.263916 789.944946,1577.566528 781.702271,1578.327393 
	C776.765137,1578.783203 771.799561,1579.724854 766.886475,1579.515625 
	C739.766663,1578.360107 712.433105,1578.841553 686.334595,1569.358643 
	C658.916382,1559.396484 638.664856,1540.995483 623.494019,1516.525635 
	C609.055847,1493.237305 601.552185,1467.534912 598.192261,1440.633545 
	C596.017761,1423.223511 594.651367,1405.676880 593.783691,1388.148804 
	C592.798218,1368.237793 591.850525,1348.247681 592.530640,1328.348145 
	C593.766174,1292.198608 596.948792,1256.199463 608.517639,1220.724243 
z"/>
<path fill="#FEFEFE" opacity="1.000000" stroke="none" 
	d="
M1974.086426,1277.667358 
	C1984.067993,1277.671875 1993.083740,1277.331543 2002.062012,1277.765625 
	C2015.260254,1278.403931 2020.760498,1282.860962 2022.713623,1296.034912 
	C2025.351440,1313.827759 2025.711182,1331.762451 2022.183228,1349.575439 
	C2019.211060,1364.582886 2009.443359,1370.115234 1992.632690,1369.434937 
	C1976.725220,1368.790894 1960.785400,1368.167480 1944.880981,1368.512573 
	C1934.531494,1368.737061 1931.952393,1372.526978 1931.648682,1383.110596 
	C1931.306152,1395.053345 1930.773926,1406.990723 1930.351807,1418.931396 
	C1930.281128,1420.928467 1930.205688,1422.942993 1930.377441,1424.928223 
	C1931.385498,1436.581055 1934.015991,1439.669189 1945.771240,1439.872681 
	C1957.685669,1440.078857 1969.619507,1438.761719 1981.547119,1438.718994 
	C1993.459473,1438.676270 2005.406860,1438.976807 2017.276978,1439.912964 
	C2024.883057,1440.512817 2028.888306,1446.105835 2030.075806,1453.256958 
	C2033.531250,1474.066162 2033.062866,1494.941284 2029.696655,1515.686157 
	C2027.637329,1528.377441 2020.674805,1533.772827 2006.535278,1534.278809 
	C1987.939209,1534.944214 1969.331055,1535.310547 1950.725098,1535.647583 
	C1932.413086,1535.979248 1914.080444,1535.708130 1895.789062,1536.472900 
	C1882.908325,1537.011353 1870.100830,1539.165894 1857.221191,1539.940674 
	C1851.702026,1540.272827 1845.910156,1539.599976 1840.544678,1538.213257 
	C1829.752686,1535.423828 1824.031494,1528.237183 1824.468384,1517.226929 
	C1825.072266,1502.009521 1826.841553,1486.842163 1827.753052,1471.631836 
	C1828.626587,1457.055908 1829.543579,1442.453735 1829.575195,1427.861206 
	C1829.749756,1347.537231 1829.690674,1267.212646 1829.601440,1186.888428 
	C1829.593750,1179.947998 1828.498779,1173.010864 1828.438599,1166.067627 
	C1828.392944,1160.804688 1828.804443,1155.468140 1829.691650,1150.280518 
	C1831.796509,1137.972900 1836.144043,1133.692871 1848.410156,1132.087524 
	C1855.948486,1131.100952 1863.585693,1130.446655 1871.182739,1130.404907 
	C1903.844727,1130.225586 1936.509155,1130.207520 1969.171021,1130.389771 
	C1981.641724,1130.459351 1994.177124,1130.563354 2006.559082,1131.846924 
	C2020.355103,1133.277222 2025.496826,1139.286011 2026.265625,1153.473145 
	C2027.056030,1168.059570 2027.385986,1182.677490 2027.565796,1197.286011 
	C2027.613770,1201.180054 2026.794312,1205.221436 2025.627075,1208.962280 
	C2023.859009,1214.628540 2020.291504,1219.166138 2014.011719,1219.989624 
	C2005.820190,1221.063843 1997.559326,1222.037720 1989.313721,1222.172974 
	C1976.005737,1222.391235 1962.686401,1221.842773 1949.370850,1221.732544 
	C1946.722778,1221.710571 1944.031372,1221.998413 1941.427368,1222.496094 
	C1934.253906,1223.866699 1930.621582,1226.980225 1930.189819,1234.409546 
	C1929.573120,1245.017578 1929.532227,1255.738037 1930.349487,1266.325195 
	C1930.980225,1274.496460 1934.360718,1277.678467 1942.556763,1278.097656 
	C1952.705322,1278.616821 1962.918579,1277.869141 1974.086426,1277.667358 
z"/>
<path fill="#FEFEFE" opacity="1.000000" stroke="none" 
	d="
M1728.341064,1348.000244 
	C1728.341064,1383.327148 1728.118042,1417.656128 1728.427368,1451.980347 
	C1728.603882,1471.573120 1729.658691,1491.157593 1730.289673,1510.746826 
	C1730.386230,1513.743286 1730.277222,1516.745850 1730.349243,1519.743530 
	C1730.763672,1536.984497 1724.911621,1545.784668 1701.317017,1545.092773 
	C1690.815186,1544.784912 1680.267090,1546.374756 1669.729248,1546.879517 
	C1660.135620,1547.339233 1650.477539,1548.244629 1640.937622,1547.609253 
	C1626.927612,1546.675781 1621.643555,1540.410645 1621.684326,1526.358276 
	C1621.845947,1470.719604 1622.247681,1415.081177 1622.230225,1359.442749 
	C1622.225830,1345.191650 1620.620728,1330.944824 1620.479370,1316.688721 
	C1620.370972,1305.767700 1621.644287,1294.840576 1621.881226,1283.906982 
	C1622.227539,1267.924316 1622.065430,1251.930786 1622.393921,1235.947388 
	C1622.515625,1230.020020 1618.876587,1228.467163 1614.266357,1228.047241 
	C1606.021606,1227.296509 1597.738037,1226.981323 1589.485596,1226.303345 
	C1583.225220,1225.788940 1576.995972,1224.904053 1570.738403,1224.346680 
	C1563.277100,1223.682373 1559.302612,1218.983154 1557.909668,1212.348389 
	C1556.353027,1204.933228 1555.063599,1197.329712 1554.909424,1189.782593 
	C1554.652710,1177.217529 1554.386963,1164.501343 1555.998413,1152.092163 
	C1557.596924,1139.783813 1566.146240,1133.169800 1578.401123,1131.900879 
	C1581.041870,1131.627441 1583.722046,1131.680176 1586.384155,1131.675171 
	C1598.048706,1131.653564 1609.715698,1131.823120 1621.377075,1131.630249 
	C1640.317261,1131.317017 1659.254028,1130.423218 1678.191528,1130.443481 
	C1692.450928,1130.458740 1706.704712,1131.824585 1720.969238,1132.035156 
	C1735.940186,1132.256104 1750.920654,1131.788086 1765.897461,1131.688110 
	C1769.221069,1131.665894 1772.582275,1131.657959 1775.864502,1132.100830 
	C1787.405273,1133.658203 1791.729248,1137.953979 1792.194336,1149.607666 
	C1792.672241,1161.586304 1792.581665,1173.604980 1792.248413,1185.592529 
	C1792.037231,1193.186523 1791.409058,1200.839111 1790.110107,1208.316528 
	C1788.024780,1220.320679 1781.716797,1225.320923 1769.527222,1225.664795 
	C1760.544434,1225.918213 1751.551147,1225.932373 1742.578857,1226.381958 
	C1732.038818,1226.910278 1728.114746,1230.624146 1727.815918,1241.076904 
	C1727.550049,1250.376709 1728.282959,1259.700439 1728.312500,1269.014404 
	C1728.394775,1295.009399 1728.341064,1321.004883 1728.341064,1348.000244 
z"/>
<path fill="#FDFDFD" opacity="1.000000" stroke="none" 
	d="
M2394.326660,1298.127686 
	C2394.770020,1276.223267 2395.301270,1255.287109 2395.616943,1234.347778 
	C2395.755127,1225.181763 2395.004883,1224.434326 2385.850342,1222.805908 
	C2383.257080,1222.344482 2380.559814,1222.447388 2377.907959,1222.342041 
	C2372.258301,1222.117065 2366.592285,1222.120972 2360.959961,1221.683472 
	C2343.277100,1220.309692 2338.391602,1215.207397 2337.666992,1197.660889 
	C2337.201172,1186.389648 2336.635498,1175.119873 2336.406494,1163.843506 
	C2336.333496,1160.257080 2336.931641,1156.594238 2337.684326,1153.064819 
	C2340.541748,1139.660400 2346.924561,1134.056030 2360.304688,1133.717163 
	C2384.569824,1133.102783 2408.842041,1132.437256 2433.111328,1132.445190 
	C2449.368164,1132.450562 2465.619629,1133.841797 2481.882324,1134.126343 
	C2494.853271,1134.353516 2507.836670,1133.751831 2520.815186,1133.686768 
	C2539.202393,1133.594482 2542.663086,1137.192627 2543.455566,1155.916260 
	C2544.071777,1170.473999 2542.777588,1185.116455 2542.205811,1199.716309 
	C2542.116455,1202.002197 2541.469238,1204.291748 2540.884033,1206.528564 
	C2537.987305,1217.599243 2533.186279,1221.461914 2521.968506,1221.655884 
	C2514.639160,1221.782715 2507.286865,1221.413086 2499.981689,1221.863037 
	C2490.482178,1222.447876 2487.716553,1225.468506 2487.707520,1235.009766 
	C2487.644287,1301.661133 2487.640625,1368.312622 2487.705322,1434.963989 
	C2487.717773,1447.610107 2488.012207,1460.259033 2488.382080,1472.900757 
	C2488.614258,1480.846558 2489.456543,1488.777954 2489.570312,1496.722412 
	C2489.621582,1500.297119 2488.842285,1503.959595 2487.946289,1507.455688 
	C2486.262207,1514.026123 2481.569824,1517.656494 2475.026611,1518.130493 
	C2456.183350,1519.495605 2437.318604,1520.574951 2418.453369,1521.604980 
	C2415.876221,1521.745605 2413.218018,1521.116089 2410.650391,1520.586670 
	C2399.052979,1518.195679 2394.674072,1513.446655 2394.440186,1501.697144 
	C2394.288818,1494.102661 2395.580811,1486.487427 2395.598389,1478.880127 
	C2395.713623,1429.225098 2395.731201,1379.569336 2395.597412,1329.914429 
	C2395.569580,1319.640137 2394.770508,1309.367920 2394.326660,1298.127686 
z"/>
<path fill="#FDFDFD" opacity="1.000000" stroke="none" 
	d="
M2813.919922,1508.335449 
	C2802.680176,1507.684814 2792.414795,1507.140259 2782.166992,1506.364014 
	C2751.800049,1504.064331 2731.381348,1486.945312 2716.638184,1461.768799 
	C2704.510498,1441.058228 2699.071533,1418.193115 2696.076172,1394.650635 
	C2692.549316,1366.931274 2691.459473,1339.052246 2691.749023,1311.152832 
	C2692.059082,1281.278442 2693.587402,1251.452515 2700.066406,1222.134766 
	C2703.298096,1207.510864 2707.580322,1193.284668 2715.024170,1180.086426 
	C2724.596191,1163.115356 2738.762695,1151.583374 2756.482422,1144.336304 
	C2773.526855,1137.365479 2791.375488,1133.793335 2809.843262,1133.675781 
	C2818.720215,1133.619263 2827.635742,1133.165039 2836.465576,1133.815918 
	C2848.462402,1134.700073 2854.410645,1140.759888 2855.556396,1152.814941 
	C2856.150146,1159.060913 2855.595703,1165.410034 2855.689941,1171.710693 
	C2855.854248,1182.693115 2856.289795,1193.674072 2856.299072,1204.655762 
	C2856.311279,1218.843872 2850.062256,1225.053223 2835.893799,1225.710938 
	C2829.940674,1225.987305 2823.800293,1225.848877 2818.102051,1227.300171 
	C2802.900391,1231.171997 2793.168213,1241.036255 2790.286621,1256.606079 
	C2788.422363,1266.676758 2786.604736,1276.937988 2786.542725,1287.124634 
	C2786.384277,1313.025635 2786.894775,1338.944824 2787.829346,1364.831665 
	C2788.197510,1375.032471 2789.645996,1385.341919 2791.944580,1395.291992 
	C2795.737061,1411.710205 2804.992676,1418.367188 2821.964355,1418.295776 
	C2828.615234,1418.267700 2835.265137,1417.698975 2841.914551,1417.712158 
	C2850.180664,1417.728516 2853.366211,1419.990601 2855.907471,1427.714600 
	C2856.926025,1430.810425 2857.506836,1434.169434 2857.602539,1437.428955 
	C2857.993164,1450.739014 2857.913574,1464.063965 2858.386963,1477.369995 
	C2859.262207,1501.988403 2846.599854,1505.135498 2830.842041,1507.569092 
	C2825.614014,1508.376343 2820.220215,1508.110718 2813.919922,1508.335449 
z"/>
<path fill="#FDFDFD" opacity="1.000000" stroke="none" 
	d="
M2575.656250,1216.001465 
	C2575.212646,1195.412964 2574.543457,1175.825806 2574.391846,1156.234741 
	C2574.254639,1138.493164 2578.018066,1133.429443 2595.017822,1132.673706 
	C2612.547363,1131.894409 2630.200195,1132.781982 2647.743408,1133.855713 
	C2657.569580,1134.457275 2660.870117,1138.497070 2662.275879,1148.403931 
	C2663.063232,1153.952759 2663.605957,1159.589111 2663.615967,1165.187134 
	C2663.712891,1219.798218 2663.834961,1274.410156 2663.617432,1329.020630 
	C2663.472900,1365.260620 2662.620850,1401.497559 2662.427979,1437.737671 
	C2662.354004,1451.662842 2663.416016,1465.591064 2663.583252,1479.522339 
	C2663.650146,1485.109253 2663.041748,1490.764404 2662.131104,1496.287842 
	C2660.964355,1503.364746 2657.097656,1508.626709 2649.782471,1510.397949 
	C2644.337158,1511.716431 2638.808105,1513.315430 2633.271729,1513.508179 
	C2619.998779,1513.969971 2606.681152,1514.118530 2593.416504,1513.562378 
	C2580.439209,1513.018311 2575.943359,1509.132202 2574.636719,1496.420410 
	C2573.449951,1484.877197 2573.675293,1473.163452 2573.705566,1461.525879 
	C2573.776123,1434.237671 2574.102295,1406.950073 2574.325684,1379.662231 
	C2574.769043,1325.441895 2575.212891,1271.221436 2575.656250,1216.001465 
z"/>
<path fill="#030303" opacity="1.000000" stroke="none" 
	d="
M2615.915283,1861.980591 
	C2621.556885,1828.527344 2627.011475,1795.926636 2632.536621,1762.905273 
	C2635.800781,1762.457886 2638.605713,1762.073486 2642.226318,1761.577271 
	C2644.109375,1771.485840 2646.013428,1780.801392 2647.637939,1790.165649 
	C2658.949707,1855.369873 2670.250977,1920.576050 2681.415283,1985.805664 
	C2682.809814,1993.953979 2683.755127,2002.220337 2684.257568,2010.471802 
	C2685.418945,2029.536255 2677.580811,2039.819092 2658.952148,2043.684204 
	C2642.847656,2047.025513 2626.618652,2046.665283 2610.555420,2043.457642 
	C2605.780029,2042.504028 2601.087402,2040.313843 2596.805176,2037.896606 
	C2589.643555,2033.854004 2587.916992,2028.958008 2589.337891,2020.458374 
	C2597.686768,1970.520752 2605.993896,1920.576050 2614.322510,1870.634888 
	C2614.757080,1868.028687 2615.258057,1865.433472 2615.915283,1861.980591 
z"/>
<path fill="#020202" opacity="1.000000" stroke="none" 
	d="
M1745.658691,1848.392334 
	C1745.659180,1837.230225 1745.198486,1826.996460 1745.760376,1816.819336 
	C1746.790771,1798.156250 1756.130127,1788.649536 1774.800537,1786.286133 
	C1806.798340,1782.235596 1829.915649,1798.650635 1835.682617,1831.004517 
	C1838.986328,1849.539307 1841.556885,1868.410522 1842.077271,1887.196045 
	C1843.505005,1938.732788 1843.778931,1990.303467 1844.280884,2041.862793 
	C1844.442871,2058.497070 1844.524658,2075.176514 1843.520996,2091.767578 
	C1842.082764,2115.540527 1841.501099,2139.445068 1836.180664,2162.842041 
	C1832.311523,2179.857422 1824.731567,2194.010498 1807.550171,2201.020508 
	C1794.172607,2206.478516 1780.500122,2207.304199 1766.703857,2203.122314 
	C1756.177368,2199.931396 1749.726929,2192.240234 1748.092285,2181.720947 
	C1746.420654,2170.964600 1746.207642,2159.957764 1745.760864,2149.043945 
	C1745.517090,2143.084473 1746.297241,2137.090820 1746.300415,2131.112549 
	C1746.342407,2051.830078 1746.361938,1972.547363 1746.298218,1893.264771 
	C1746.286499,1878.625244 1745.881958,1863.985840 1745.658691,1848.392334 
z"/>
<path fill="#030303" opacity="1.000000" stroke="none" 
	d="
M998.322205,1359.999756 
	C998.322205,1332.341309 997.814819,1305.668457 998.564453,1279.031128 
	C998.877319,1267.914673 1001.218933,1256.720825 1003.796936,1245.836548 
	C1007.064697,1232.039917 1017.710938,1225.823975 1030.832520,1224.587769 
	C1042.807373,1223.459717 1052.949463,1228.068115 1059.777344,1238.517578 
	C1065.204224,1246.822754 1067.552002,1256.193481 1067.592407,1265.903442 
	C1067.783813,1311.888428 1068.093140,1357.880859 1067.429077,1403.857178 
	C1067.225220,1417.975342 1064.662109,1432.160278 1062.091797,1446.114502 
	C1059.615967,1459.556274 1049.799561,1466.021606 1036.939331,1468.241089 
	C1033.077759,1468.907471 1029.059692,1469.545288 1025.202637,1469.199585 
	C1012.480042,1468.059448 1004.218689,1461.247192 1001.872131,1448.495483 
	C1000.260254,1439.736206 998.696838,1430.843628 998.479614,1421.977173 
	C997.981995,1401.662354 998.322205,1381.326904 998.322205,1359.999756 
z"/>
</svg>